<svg width="903" height="967" viewBox="0 0 903 967" fill="none" xmlns="http://www.w3.org/2000/svg">
<g filter="url(#filter0_f_636_14137)">
<path d="M483.789 838.189C389.637 838.189 299.342 800.788 232.766 734.212C166.191 667.637 128.789 577.341 128.789 483.189C128.789 389.038 166.191 298.742 232.766 232.167C299.342 165.591 389.637 128.189 483.789 128.189C577.941 128.189 668.237 165.591 734.812 232.167C801.387 298.742 838.789 389.038 838.789 483.189C838.789 577.341 801.387 667.637 734.812 734.212C668.237 800.788 577.941 838.189 483.789 838.189Z" fill="url(#paint0_linear_636_14137)"/>
</g>
<defs>
<filter id="filter0_f_636_14137" x="0.789062" y="0.189453" width="966" height="966" filterUnits="userSpaceOnUse" color-interpolation-filters="sRGB">
<feFlood flood-opacity="0" result="BackgroundImageFix"/>
<feBlend mode="normal" in="SourceGraphic" in2="BackgroundImageFix" result="shape"/>
<feGaussianBlur stdDeviation="64" result="effect1_foregroundBlur_636_14137"/>
</filter>
<linearGradient id="paint0_linear_636_14137" x1="483.789" y1="128.189" x2="483.789" y2="838.189" gradientUnits="userSpaceOnUse">
<stop stop-color="#55A5FF"/>
<stop offset="1" stop-color="#38A497"/>
</linearGradient>
</defs>
</svg>
