<svg width="936" height="915" viewBox="0 0 936 915" fill="none" xmlns="http://www.w3.org/2000/svg">
<g filter="url(#filter0_f_636_16987)">
<path d="M495.789 850.504C401.637 850.504 311.342 813.102 244.766 746.527C178.191 679.951 140.789 589.656 140.789 495.504C140.789 401.352 178.191 311.056 244.766 244.481C311.342 177.906 401.637 140.504 495.789 140.504C589.941 140.504 680.237 177.906 746.812 244.481C813.387 311.056 850.789 401.352 850.789 495.504C850.789 589.656 813.387 679.951 746.812 746.527C680.237 813.102 589.941 850.504 495.789 850.504Z" fill="url(#paint0_linear_636_16987)"/>
</g>
<defs>
<filter id="filter0_f_636_16987" x="0.789062" y="0.503906" width="990" height="990" filterUnits="userSpaceOnUse" color-interpolation-filters="sRGB">
<feFlood flood-opacity="0" result="BackgroundImageFix"/>
<feBlend mode="normal" in="SourceGraphic" in2="BackgroundImageFix" result="shape"/>
<feGaussianBlur stdDeviation="70" result="effect1_foregroundBlur_636_16987"/>
</filter>
<linearGradient id="paint0_linear_636_16987" x1="495.789" y1="140.504" x2="495.789" y2="850.504" gradientUnits="userSpaceOnUse">
<stop stop-color="#D349DD" stop-opacity="0.69"/>
<stop offset="1" stop-color="#1781F7" stop-opacity="0.65"/>
</linearGradient>
</defs>
</svg>
